<?xml version="1.0" encoding="UTF-8"?>
<svg width="1010" height="195.46" fill="none" version="1.1" viewBox="0 0 1010 195.46" xmlns="http://www.w3.org/2000/svg">
 <rect x="15.054" y="15.054" width="979.87" height="165.35" fill="#fff" stroke="#fff" stroke-linejoin="round" stroke-width="30.108"/>
 <g clip-rule="evenodd" fill-rule="evenodd" stroke-width="4">
  <g fill="#013c4c">
   <path d="m785.68 70.754v63.525c0 2.2376-1.816 4.0472-4.056 4.0472h-15.524c-2.236 0-4.052-1.8096-4.052-4.0472v-86.409c0-2.2328 1.816-4.0474 4.052-4.0474h23.352c2.74 0 5.296 1.3921 6.792 3.6914 9.148 14.1 41.396 63.771 41.396 63.771v-63.41c0-2.2375 1.816-4.0524 4.052-4.0524h15.524c2.24 0 4.052 1.8149 4.052 4.0524v86.404c0 2.2376-1.812 4.0524-4.052 4.0524h-23.272c-2.74 0-5.296-1.3876-6.792-3.6916-9.16-14.114-41.472-63.886-41.472-63.886z"/>
   <path d="m954.51 63.153c-1.536 1.9002-3.852 3.0071-6.3 3.0071h-19.396c-1.04 0-1.988-0.59856-2.436-1.5344-0.448-0.9406-0.32-2.0524 0.336-2.8647 3.568-4.4133 8.968-11.088 12.076-14.931 1.536-1.9002 3.852-3.0071 6.296-3.0071h19.4c1.04 0 1.984 0.59874 2.436 1.5394 0.448 0.94062 0.316 2.0522-0.336 2.8598-3.568 4.4133-8.968 11.088-12.076 14.931z"/>
   <path d="m680.13 132.47c-0.42 1.4204 0.388 2.9164 1.808 3.344 8.148 2.3944 16.8 3.6912 25.712 3.6912 5.288 0 10.472-0.4512 15.504-1.3204 17.076-2.9452 30.068-17.843 30.068-35.748v-54.565c0-2.2328-1.816-4.0474-4.052-4.0474h-15.44c-2.236 0-4.052 1.8147-4.052 4.0474v54.874c0 10.846-8.332 19.762-18.94 20.684-10.64 1.012-20.12-0.9688-24.512-2.1328-0.684-0.1996-1.428-0.1236-2.052 0.2184-0.628 0.342-1.096 0.9168-1.292 1.6056-0.784 2.6368-1.984 6.7176-2.752 9.3496z"/>
  </g>
  <path d="m868.12 133.93c-0.652 0.8076-0.78 1.924-0.336 2.8596 0.452 0.9408 1.396 1.5396 2.436 1.5396h19.4c2.444 0 4.764-1.1068 6.296-3.0072 8.416-10.408 35.78-44.247 35.78-44.247s-27.364-33.838-35.78-44.247c-1.532-1.9002-3.852-3.0071-6.296-3.0071h-19.4c-1.04 0-1.984 0.59874-2.436 1.5394-0.444 0.94061-0.316 2.0522 0.336 2.8598 9.484 11.729 34.652 42.855 34.652 42.855s-25.168 31.131-34.652 42.855z" fill="#faad40"/>
  <path d="m936.67 94.604s21.196 26.209 30.676 37.934c0.652 0.8076 0.784 1.924 0.336 2.86-0.448 0.9404-1.396 1.5392-2.436 1.5392h-19.4c-2.444 0-4.76-1.1068-6.296-3.0072-6.056-7.4868-17.34-21.444-17.34-21.444z" fill="#013c4c"/>
 </g>
 <g fill="#013c4c" stroke-width="4">
  <path d="m64.007 141.09c-6.5036 0-12.204-1.2352-17.102-3.71-4.9026-2.4704-8.6793-5.9524-11.335-10.437-2.6556-4.4892-3.9858-9.6624-3.9858-15.525v-9.7532c0-0.9168 0.46082-1.3776 1.3729-1.3776h10.442c0.91684 0 1.3729 0.4608 1.3729 1.3776v9.7532c0 5.4964 1.7434 9.9144 5.2209 13.254 3.4822 3.3444 8.1521 5.0168 14.014 5.0168 5.677 0 10.304-1.6724 13.876-5.0168 3.5728-3.3396 5.354-7.7576 5.354-13.254v-66.219c0-0.91686 0.4612-1.3729 1.378-1.3729h10.437c0.9168 0 1.378 0.45606 1.378 1.3729v66.219c0 5.8624-1.354 11.036-4.0524 15.525-2.7032 4.4848-6.5272 7.9668-11.473 10.437-4.9452 2.4748-10.58 3.71-16.898 3.71z"/>
  <path d="m139.66 67.26c5.5868 0 10.466 0.9834 14.632 2.9549 4.166 1.9668 7.3728 4.7176 9.6152 8.2425 2.2468 3.5249 3.368 7.5343 3.368 12.019v46.437c0 0.9124-0.456 1.3732-1.3728 1.3732h-10.442c-0.9168 0-1.3728-0.4608-1.3728-1.3732v-4.9452c0-0.4608-0.228-0.5512-0.6888-0.2756-2.38 2.4704-5.2876 4.3704-8.722 5.7004-3.4348 1.3256-7.2592 1.9908-11.473 1.9908-6.7744 0-12.385-1.7152-16.827-5.1496-4.4416-3.4348-6.6652-8.632-6.6652-15.596 0-7.14 2.4944-12.75 7.4872-16.826 4.9928-4.076 11.976-6.114 20.95-6.114h15.387c0.366 0 0.5512-0.1808 0.5512-0.5512v-3.7056c0-4.0332-1.1688-7.1684-3.506-9.4109-2.3324-2.247-5.8812-3.3681-10.646-3.3681-3.848 0-6.9836 0.75528-9.4108 2.266-2.4276 1.5107-3.9148 3.5486-4.4656 6.1138-0.2708 0.9172-0.822 1.3304-1.6488 1.2352l-11.126-1.5104c-0.9168-0.1808-1.3304-0.5464-1.2352-1.0976 0.7316-5.4014 3.6152-9.824 8.6556-13.259 5.0356-3.4347 11.354-5.1498 18.955-5.1498zm-3.5724 60.998c4.8552 0 9.0688-1.2828 12.641-3.848s5.3588-5.8144 5.3588-9.7528v-8.1048c0-0.3656-0.1852-0.5508-0.5512-0.5508h-12.912c-5.406 0-9.7104 1.0544-12.917 3.1588-3.202 2.1096-4.8076 5.036-4.8076 8.7936 0 3.3872 1.216 5.9524 3.6436 7.6912 2.4276 1.7436 5.6056 2.6128 9.544 2.6128z"/>
  <path d="m239.84 85.944c1.7384 4.9456 2.608 10.808 2.608 17.582 0 6.4132-0.7316 11.952-2.1948 16.627-1.924 6.1328-5.0832 10.874-9.4824 14.218-4.394 3.3396-10.028 5.012-16.898 5.012-3.1116 0-6.0664-0.6176-8.86-1.8528-2.7932-1.2352-5.1972-3.0024-7.2112-5.292-0.1852-0.1808-0.342-0.228-0.48-0.138-0.1376 0.0952-0.2092 0.2328-0.2092 0.4132v30.637c0 0.9168-0.456 1.3728-1.3728 1.3728h-10.442c-0.9168 0-1.3732-0.456-1.3732-1.3728v-93.42c0-0.91212 0.4564-1.373 1.3732-1.373h10.442c0.9168 0 1.3728 0.46084 1.3728 1.373v4.5369c0 0.18052 0.0716 0.31816 0.2092 0.4132 0.138 0.09024 0.2948 0.04276 0.48-0.13776 2.014-2.2898 4.394-4.076 7.1448-5.3586 2.746-1.2827 5.7244-1.9241 8.9264-1.9241 6.5936 0 12.066 1.6249 16.418 4.879 4.3516 3.2494 7.5344 7.8528 9.5488 13.805zm-15.112 35.444c2.9308-4.3992 4.394-10.442 4.394-18.133 0-7.0544-1.1448-12.732-3.4344-17.036-2.6556-5.0403-7.0072-7.5582-13.05-7.5582-5.3112 0-9.3396 2.4751-12.09 7.4206-2.1948 3.938-3.2968 9.7052-3.2968 17.311 0 7.6912 1.1924 13.553 3.5724 17.582 2.6556 4.67 6.5512 7.0076 11.677 7.0076 5.4968 0 9.5728-2.1996 12.228-6.594z"/>
  <path d="m284.19 67.26c5.5868 0 10.466 0.9834 14.632 2.9549 4.166 1.9668 7.3728 4.7176 9.6152 8.2425 2.2468 3.5249 3.368 7.5343 3.368 12.019v46.437c0 0.9124-0.4608 1.3732-1.3728 1.3732h-10.442c-0.9168 0-1.3728-0.4608-1.3728-1.3732v-4.9452c0-0.4608-0.2328-0.5512-0.6888-0.2756-2.38 2.4704-5.2876 4.3704-8.722 5.7004-3.4348 1.3256-7.2592 1.9908-11.473 1.9908-6.7792 0-12.385-1.7152-16.831-5.1496-4.442-3.4348-6.6604-8.632-6.6604-15.596 0-7.14 2.494-12.75 7.4868-16.826 4.9928-4.076 11.976-6.114 20.95-6.114h15.387c0.366 0 0.5512-0.1808 0.5512-0.5512v-3.7056c0-4.0332-1.1688-7.1684-3.506-9.4109-2.3324-2.247-5.8812-3.3681-10.646-3.3681-3.848 0-6.9832 0.75528-9.4108 2.266-2.4276 1.5107-3.9148 3.5486-4.4656 6.1138-0.2756 0.9172-0.822 1.3304-1.6488 1.2352l-11.126-1.5104c-0.9168-0.1808-1.3304-0.5464-1.2352-1.0976 0.7316-5.4014 3.6152-9.824 8.6508-13.259 5.0404-3.4347 11.359-5.1498 18.96-5.1498zm-3.5724 60.998c4.8552 0 9.0688-1.2828 12.641-3.848s5.3588-5.8144 5.3588-9.7528v-8.1048c0-0.3656-0.1852-0.5508-0.5512-0.5508h-12.912c-5.406 0-9.7104 1.0544-12.917 3.1588-3.202 2.1096-4.8076 5.036-4.8076 8.7936 0 3.3872 1.216 5.9524 3.6388 7.6912 2.4276 1.7436 5.6104 2.6128 9.5488 2.6128z"/>
  <path d="m359.65 67.26c7.5104 0 13.463 2.1757 17.857 6.5225 4.3992 4.3515 6.594 10.237 6.594 17.658v45.335c0 0.912-0.456 1.3728-1.3732 1.3728h-10.442c-0.912 0-1.3728-0.4608-1.3728-1.3728v-42.727c0-4.5796-1.3256-8.2896-3.9812-11.126-2.6556-2.8408-6.1852-4.2614-10.58-4.2614-4.304 0-7.8288 1.4206-10.58 4.2614-2.7456 2.8362-4.1188 6.4986-4.1188 10.988v42.865c0 0.912-0.4608 1.3728-1.3776 1.3728h-10.437c-0.9168 0-1.3772-0.4608-1.3772-1.3728v-67.183c0-0.91212 0.4604-1.3729 1.3772-1.3729h10.437c0.9168 0 1.3776 0.4608 1.3776 1.3729v4.9501c0 0.18052 0.0664 0.31828 0.2044 0.40852 0.1376 0.09504 0.252 0.04756 0.342-0.13772 3.9384-5.0356 9.758-7.5532 17.449-7.5532z"/>
  <path d="m429.96 67.26c7.5088 0 13.465 2.1757 17.857 6.5225 4.4 4.3515 6.596 10.237 6.596 17.658v45.335c0 0.912-0.456 1.3728-1.376 1.3728h-10.436c-0.916 0-1.376-0.4608-1.376-1.3728v-42.727c0-4.5796-1.328-8.2896-3.984-11.126-2.652-2.8408-6.1836-4.2614-10.578-4.2614-4.3044 0-7.8292 1.4206-10.58 4.2614-2.746 2.8362-4.1188 6.4986-4.1188 10.988v42.865c0 0.912-0.4608 1.3728-1.3776 1.3728h-10.437c-0.9168 0-1.3776-0.4608-1.3776-1.3728v-67.183c0-0.91212 0.4608-1.3729 1.3776-1.3729h10.437c0.9168 0 1.3776 0.4608 1.3776 1.3729v4.9501c0 0.18052 0.0664 0.31828 0.204 0.40852 0.138 0.09504 0.252 0.04756 0.342-0.13772 3.9384-5.0356 9.758-7.5532 17.449-7.5532z"/>
  <path d="m527.61 94.6c0.364 3.7528 0.504 7.9668 0.412 12.637 0 0.9168-0.46 1.3728-1.372 1.3728h-43.824c-0.372 0-0.552 0.1852-0.552 0.5508 0 3.1164 0.276 5.4968 0.82 7.1452 1.008 3.6628 3.048 6.5224 6.116 8.5844 3.068 2.0616 6.94 3.0924 11.608 3.0924 6.78 0 11.996-2.7932 15.664-8.38 0.456-0.9168 1.052-1.0544 1.788-0.4132l7.828 5.2208c0.64 0.5512 0.78 1.1448 0.412 1.786-2.564 4.1236-6.208 7.3732-10.92 9.7532-4.716 2.38-10.052 3.5724-16.004 3.5724-6.688 0-12.32-1.4632-16.9-4.3944-4.58-2.9312-8.012-7.0972-10.304-12.503-2.2-5.4016-3.296-11.952-3.296-19.644 0-6.6888 0.504-11.772 1.512-15.249 1.648-6.3184 4.944-11.311 9.888-14.974 4.948-3.6627 10.948-5.4966 17.996-5.4966 9.248 0 16.168 2.3136 20.748 6.936 4.58 4.6271 7.372 11.425 8.38 20.404zm-29.128-15.938c-3.936 0-7.188 0.9834-9.752 2.9549-2.564 1.9667-4.304 4.6032-5.22 7.9-0.644 2.0144-1.056 4.5796-1.236 7.6912 0 0.366 0.18 0.5512 0.552 0.5512h31.456c0.368 0 0.552-0.1852 0.552-0.5512-0.184-3.0212-0.46-5.2636-0.828-6.7316-0.916-3.5724-2.72-6.432-5.424-8.5842-2.704-2.152-6.068-3.2304-10.1-3.2304z"/>
  <path d="m540.63 141.1c-0.552 0-0.916-0.1616-1.096-0.48-0.188-0.3232-0.14-0.7128 0.136-1.1688l22.804-32.836c0.184-0.2756 0.184-0.5464 0-0.8216l-22.804-32.974-0.276-0.684c0-0.64132 0.412-0.96436 1.236-0.96436h11.124c0.736 0 1.284 0.27556 1.648 0.82664l16.076 23.492c0.092 0.0904 0.228 0.138 0.416 0.138 0.18 0 0.316-0.0476 0.408-0.138l15.936-23.492c0.368-0.55108 0.92-0.82664 1.652-0.82664h11.952c0.548 0 0.916 0.16148 1.096 0.48452 0.184 0.31828 0.136 0.7078-0.136 1.1638l-22.804 32.974c-0.092 0.2752-0.092 0.546 0 0.8216l22.804 32.836 0.272 0.6844c0 0.6412-0.412 0.9644-1.232 0.9644h-11.264c-0.736 0-1.284-0.2756-1.648-0.8268l-15.94-23.492c-0.088-0.1808-0.228-0.2756-0.412-0.2756-0.18 0-0.32 0.0948-0.408 0.2756l-16.076 23.492c-0.368 0.5512-0.92 0.8268-1.648 0.8268z"/>
  <path d="m645.5 79.251c0 0.91212-0.456 1.3729-1.372 1.3729h-14.836c-0.368 0-0.552 0.18036-0.552 0.55092v36.404c0 3.848 0.868 6.6176 2.612 8.3136 1.74 1.6912 4.44 2.5416 8.104 2.5416h3.98c0.92 0 1.38 0.456 1.38 1.3728v8.518c0 0.912-0.46 1.3728-1.38 1.3728-2.924 0.1804-5.032 0.2756-6.316 0.2756-6.96 0-12.204-1.2592-15.728-3.7816-3.528-2.518-5.288-7.164-5.288-13.943v-41.073c0-0.37056-0.188-0.55092-0.552-0.55092h-8.38c-0.916 0-1.372-0.4608-1.372-1.3729v-8.1094c0-0.91212 0.456-1.3729 1.372-1.3729h8.38c0.364 0 0.552-0.18048 0.552-0.54628v-16.214c0-0.91688 0.456-1.373 1.372-1.373h9.892c0.916 0 1.372 0.45608 1.372 1.373v16.214c0 0.3658 0.184 0.54628 0.552 0.54628h14.836c0.916 0 1.372 0.4608 1.372 1.3729z"/>
 </g>
</svg>
